<svg xmlns="http://www.w3.org/2000/svg" viewBox="0 0 512 512"><rect width="512" height="512" fill="#6a001b" rx="106" ry="106"/><path fill="#fff" d="M139.25 64.33v383.79h-12.73c-4.94 0-12.73.73-23.38 2.18-9.08 1.46-19.73 2.18-31.97 2.18v-6.55c12.63-1.7 23.09-9.34 31.38-22.94 8.29-13.59 12.43-39.81 12.43-78.65V157.18c0-52.92-14.61-83.14-43.81-90.67v-6.55c12.63 1.7 35.32 3.16 68.08 4.37zm30.19 383.78h-8.58V64.33c11.84 0 24.47-.6 37.89-1.82 15.39-1.7 27.92-2.55 37.59-2.55 27.03 0 47.16 10.2 60.39 30.59 13.22 20.15 19.83 45.03 19.83 74.64 0 50.25-17.27 82.42-51.8 96.49 17.17 2.91 31.57 9.23 43.22 18.93 12.43 10.44 31.28 31.31 56.54 62.63 38.48 48.06 69.86 72.1 94.13 72.1 4.93 0 9.96-2.06 15.1-6.19l1.18 6.55c-7.9 12.62-18.85 18.93-32.86 18.93-15 0-30.69-6.92-47.07-20.75-15.39-13.11-38.38-38.83-68.97-77.19-36.71-46.61-72.42-69.91-107.15-69.91 21.51 8.26 50.62 36.05 87.32 83.38 25.85 33.02 46.57 57.05 62.16 72.1 15.79 15.05 30.88 22.58 45.29 22.58v3.28c-6.71 2.91-13.32 4.37-19.83 4.37-19.14 0-35.72-5.95-49.73-17.84-7.5-6.55-17.02-16.57-28.57-30.04-11.54-13.47-25.41-30.89-41.59-52.25-23.68-31.07-41.25-52.19-52.69-63.36-12.24-11.41-24.18-19.42-35.82-24.03v86.3c0 58.02 14.21 89.57 42.62 94.67v6.55c-23.68-2.91-43.22-4.37-58.61-4.37zm15.98-283.65v79.01c11.64 3.64 24.27 5.46 37.89 5.46 44.4 0 66.6-28.4 66.6-85.2 0-53.16-22.01-79.74-66.01-79.74-14.21 0-25.26 3.52-33.15 10.56-3.55 9.71-5.33 33.02-5.33 69.91zm134.09 78.65c12.83-25 19.24-52.55 19.24-82.66 0-27.43-7.4-54.98-22.2-82.66 33.94 17.72 50.91 45.64 50.91 83.75s-15.98 65.79-47.95 81.56z"/></svg>